<?xml version="1.0" encoding="utf-8"?>
<!-- Generator: Adobe Illustrator 19.2.1, SVG Export Plug-In . SVG Version: 6.00 Build 0)  -->
<svg version="1.1" id="Layer_1" xmlns="http://www.w3.org/2000/svg" xmlns:xlink="http://www.w3.org/1999/xlink" x="0px" y="0px"
	 viewBox="0 0 32 32" style="enable-background:new 0 0 32 32;" xml:space="preserve">
<style type="text/css">
	.st0{fill:#09607D;}
	.st1{fill:#2888A8;}
	.st2{fill:#47A0BD;}
	.st3{fill:#00B066;}
	.st4{fill:#DEFEF2;}
</style>
<g>
	<g>
		<g>
			<path class="st0" d="M4.4,2.5c0-0.9,0.7-1.7,1.6-1.6c4.2,0,8.5,0,12.7,0c0.7,0,1.4,0.5,1.6,1.2c0.1,0.3,0.1,0.5,0.1,0.8
				c0,2.1,0,4.2,0,6.4c-0.5,0-1-0.1-1.4-0.2c0-0.4,0.1-0.7,0-1.1c0-1.8,0-3.5,0-5.3c0-0.2,0-0.4-0.2-0.5c-0.3-0.1-0.6-0.1-0.8-0.1
				c-0.4,0-0.8-0.1-1.2,0c-0.1,0.3-0.2,0.7-0.4,0.9c-0.2,0.3-0.6,0.5-1,0.5c-1.9,0-3.9,0-5.8,0c-0.3,0-0.7,0-0.9-0.2
				C8.3,3.2,8.1,2.7,8,2.3c-0.4-0.1-0.9,0-1.3,0c-0.3,0-0.5,0-0.8,0c-0.1,0-0.1,0.2-0.1,0.3c0,9.2,0,18.4,0,27.6
				c0,0.2,0.1,0.4,0.3,0.4c0.3,0.1,0.6,0,0.9,0c0.6,0,1.2,0,1.9,0c0.9,0,1.8,0,2.7,0c0.6,0,1.3,0,1.9,0c0.8,0,1.6-0.1,2.4,0
				c0.6,0,1.3,0,1.9,0c0.4,0,0.7,0,1.1,0c0.2-0.1,0.2-0.4,0.2-0.6c0-0.6,0-1.1,0-1.7c-0.4,0-0.8,0-1.2,0c-0.6-0.1-1.1-0.1-1.7-0.3
				c-0.4-0.1-0.8-0.2-1.2-0.4c0.6,0.2,1.3,0.4,1.9,0.5c0.7,0.1,1.5,0.1,2.2,0.1c0.4,0,0.9-0.1,1.3-0.2c0,0.7,0,1.4,0,2.1
				c0,0.3-0.1,0.5-0.1,0.8c-0.2,0.5-0.7,1-1.2,1.1c-0.2,0-0.5,0-0.7,0c-4.1,0-8.2,0-12.3,0c-0.9,0-1.7-0.9-1.7-1.8
				C4.4,21,4.4,11.7,4.4,2.5z M10,2.3c-0.2,0.1-0.2,0.5,0.1,0.5c1.1,0,2.1,0,3.2,0c0.1,0,0.3,0,0.3-0.1c0.1-0.2-0.1-0.4-0.3-0.4
				C12.2,2.3,11.1,2.3,10,2.3z M14.2,2.7c0.1,0.1,0.3,0.1,0.4,0.1c0.1-0.1,0.2-0.3,0-0.4c-0.1-0.1-0.2-0.1-0.3-0.1
				C14.2,2.4,14.2,2.6,14.2,2.7z"/>
		</g>
	</g>
	<g>
		<path class="st1" d="M5.9,2.3c0.3-0.1,0.5,0,0.8,0c0.4,0,0.9,0,1.3,0c0.1,0.4,0.3,0.9,0.7,1.2C9,3.6,9.3,3.7,9.6,3.7
			c1.9,0,3.9,0,5.8,0c0.4,0,0.7-0.2,1-0.5c0.2-0.3,0.3-0.6,0.4-0.9c0.4-0.1,0.8,0,1.2,0c0.3,0,0.6,0,0.8,0.1
			c0.2,0.1,0.2,0.3,0.2,0.5c0,1.8,0,3.5,0,5.3c0,0.4,0,0.7,0,1.1c-0.8,0-1.6,0-2.3,0.2c-0.2,0.1-0.4,0.1-0.6,0.1
			c-0.2,0.1-0.5,0.1-0.7,0.2c-0.1,0.1-0.2,0.1-0.3,0.1c-0.1,0.1-0.3,0.1-0.4,0.2c-1.1,0.5-2.1,1.2-3,2.1c-0.6,0.5-1,1.2-1.4,1.8
			c-0.2,0.4-0.4,0.7-0.5,1.1c0,0.1,0,0.1-0.1,0.2c0,0.1-0.1,0.2-0.1,0.3c-0.1,0.3-0.2,0.6-0.3,0.8c0,0.1,0,0.1,0,0.2
			c0,0.1,0,0.2-0.1,0.3c0,0.2,0,0.3-0.1,0.5c0,0.2,0,0.4-0.1,0.6c0,0.6,0,1.1,0,1.7c0.1,0.3,0.1,0.7,0.2,1c0,0.1,0,0.2,0.1,0.3
			c0,0.2,0.1,0.3,0.1,0.5c0,0,0,0.1,0,0.1c0.1,0.1,0.1,0.3,0.1,0.4c0,0.1,0.1,0.2,0.1,0.3c0.3,0.8,0.7,1.5,1.3,2.2c0,0,0,0.1,0,0.1
			c0,0.1-0.1,0.2-0.1,0.3c0,0.1-0.1,0.2-0.1,0.4c0,0.1-0.1,0.2-0.1,0.3c0,0.1-0.1,0.2-0.1,0.3c0,0.1-0.1,0.2-0.1,0.3
			c0,0.1-0.1,0.2-0.1,0.3c0,0.1-0.1,0.2-0.1,0.3c0,0.1-0.1,0.2-0.1,0.3c0,0.1-0.1,0.2-0.1,0.3c0,0.1-0.1,0.1-0.1,0.2
			c0,0.1-0.1,0.2-0.1,0.3c0,0.1,0,0.2,0,0.4c0,0.1,0.1,0.3,0.1,0.4c0.2,0.3,0.4,0.6,0.7,0.7c0.1,0,0.1,0,0.2,0.1
			c0.3,0.1,0.7,0.1,1,0c0.2-0.1,0.5-0.2,0.7-0.4c0.8-0.4,1.6-0.8,2.4-1.3c0.1,0,0.2,0,0.2,0.1c0.4,0.2,0.8,0.3,1.2,0.4
			c0.5,0.1,1.1,0.2,1.7,0.3c0.4,0,0.8,0,1.2,0c0,0.6,0,1.1,0,1.7c0,0.2,0,0.5-0.2,0.6c-0.3,0.1-0.7,0-1.1,0c-0.6,0-1.3,0-1.9,0
			c-0.8,0-1.6,0-2.4,0c-0.6,0-1.3,0-1.9,0c-0.9-0.1-1.8,0-2.7,0c-0.6,0-1.2,0-1.9,0c-0.3,0-0.6,0-0.9,0c-0.2,0-0.3-0.3-0.3-0.4
			c0-9.2,0-18.4,0-27.6C5.8,2.5,5.8,2.3,5.9,2.3z"/>
	</g>
	<g>
		<path class="st2" d="M10,2.3c1.1,0,2.2,0,3.4,0c0.2,0,0.4,0.2,0.3,0.4c0,0.1-0.2,0.1-0.3,0.1c-1.1,0-2.1,0-3.2,0
			C9.8,2.9,9.8,2.4,10,2.3z"/>
		<path class="st2" d="M14.2,2.7c0-0.1-0.1-0.3,0.1-0.4c0.1,0,0.2,0,0.3,0.1c0.1,0.1,0,0.3,0,0.4C14.5,2.8,14.3,2.9,14.2,2.7z"/>
	</g>
	<g>
		<g>
			<path class="st3" d="M17,10.6c0.8-0.1,1.5-0.2,2.3-0.1c0.2,0,0.4,0,0.6,0.1c0.2,0,0.5,0.1,0.7,0.1c0.1,0,0.1,0,0.2,0.1
				c0,0,0.1,0,0.1,0c0.2,0.1,0.5,0.1,0.7,0.2c1.9,0.8,3.5,2.3,4.3,4.1c0.1,0.1,0.1,0.3,0.2,0.4c0.1,0.2,0.2,0.5,0.2,0.7
				c0.1,0.3,0.1,0.6,0.2,0.9c0.1,0.2,0,0.5,0.1,0.7c0,0.4,0,0.8,0,1.2c-0.1,0.9-0.3,1.8-0.6,2.6c-0.9,2-2.6,3.7-4.7,4.5
				c-0.1,0-0.2,0.1-0.3,0.1c0,0-0.1,0-0.1,0c-0.2,0.1-0.3,0.1-0.5,0.1c-0.1,0-0.3,0.1-0.4,0.1c-0.3,0.1-0.6,0.1-0.9,0.1
				c-0.9,0-1.9,0-2.8-0.2c-0.3-0.1-0.6-0.2-0.9-0.3c-0.1,0-0.2-0.1-0.3-0.1c-0.1-0.1-0.3-0.1-0.5,0c-1.1,0.6-2.2,1.2-3.3,1.8
				c-0.1,0-0.2,0-0.2,0c0,0,0-0.1,0-0.1c0.1-0.2,0.1-0.4,0.2-0.6c0-0.1,0.1-0.2,0.1-0.3c0-0.1,0.1-0.2,0.1-0.3
				c0.1-0.1,0.1-0.2,0.1-0.4c0-0.1,0.1-0.2,0.1-0.3c0-0.1,0.1-0.2,0.1-0.3c0-0.1,0.1-0.2,0.1-0.3c0-0.1,0.1-0.2,0.1-0.3
				c0-0.1,0.1-0.2,0.1-0.3c0-0.1,0.1-0.2,0.1-0.3c0.1-0.1,0.1-0.3,0.1-0.4c-0.2-0.3-0.4-0.6-0.6-0.9c-0.3-0.4-0.6-0.9-0.8-1.4
				c-0.1-0.2-0.1-0.4-0.2-0.6c-0.1-0.2-0.1-0.4-0.2-0.5c0,0,0-0.1,0-0.1c-0.1-0.4-0.2-0.9-0.2-1.4c0-0.4,0-0.9,0-1.3
				c0.1-0.7,0.2-1.5,0.5-2.2c0.1-0.1,0.1-0.2,0.1-0.3c0.8-1.9,2.4-3.5,4.3-4.3c0.1,0,0.2-0.1,0.3-0.1C16.1,10.8,16.6,10.7,17,10.6z
				 M14.3,18c-0.7,0.2-1.1,1-0.9,1.7c0.2,0.6,0.8,1,1.3,0.9c0.5,0,0.9-0.3,1.1-0.7c0.2-0.3,0.2-0.7,0.1-1C15.7,18.2,15,17.8,14.3,18
				z M18.1,18c-0.7,0.2-1.1,1-0.9,1.7c0.1,0.6,0.7,1,1.3,0.9c0.7,0,1.4-0.6,1.3-1.4C19.8,18.4,18.9,17.7,18.1,18z M21.9,18
				c-0.7,0.2-1.1,1-0.9,1.7c0.2,0.6,0.8,1,1.3,0.9c0.5,0,0.9-0.3,1.1-0.7c0.2-0.3,0.2-0.7,0.1-1C23.4,18.2,22.6,17.8,21.9,18z"/>
		</g>
	</g>
	<g>
		<path class="st4" d="M14.3,18c0.7-0.2,1.4,0.2,1.6,0.9c0,0.3,0.1,0.7-0.1,1c-0.2,0.4-0.6,0.7-1.1,0.7c-0.6,0-1.2-0.4-1.3-0.9
			C13.2,18.9,13.6,18.1,14.3,18z"/>
		<path class="st4" d="M18.1,18c0.8-0.3,1.7,0.4,1.7,1.2c0.1,0.7-0.6,1.4-1.3,1.4c-0.6,0-1.1-0.4-1.3-0.9C17,18.9,17.4,18.1,18.1,18
			z"/>
		<path class="st4" d="M21.9,18c0.7-0.2,1.5,0.2,1.6,0.9c0,0.3,0.1,0.7-0.1,1c-0.2,0.4-0.6,0.7-1.1,0.7c-0.6,0-1.2-0.4-1.3-0.9
			C20.8,18.9,21.2,18.1,21.9,18z"/>
	</g>
</g>
</svg>
