<?xml version="1.0" encoding="utf-8"?>
<!-- Generator: Adobe Illustrator 19.2.1, SVG Export Plug-In . SVG Version: 6.00 Build 0)  -->
<svg version="1.1" id="Layer_1" xmlns="http://www.w3.org/2000/svg" xmlns:xlink="http://www.w3.org/1999/xlink" x="0px" y="0px"
	 viewBox="0 0 32 32" style="enable-background:new 0 0 32 32;" xml:space="preserve">
<style type="text/css">
	.st0{fill:#010202;}
	.st1{fill:#E94B38;}
	.st2{fill:#ED6A5C;}
</style>
<g>
	<g>
		<g>
			<path class="st0" d="M10.7,0.7c0.7-0.2,1.4-0.3,2.1-0.5c0.2-0.1,0.5,0,0.6,0.3c0.1,0.3,0.2,0.6,0.3,0.9c1.8,0.6,3.9,0.6,5.7,0
				c0.1-0.3,0.2-0.6,0.3-0.9c0.1-0.2,0.4-0.3,0.6-0.3c0.6,0.1,1.3,0.3,1.9,0.4c0.2,0,0.4,0.1,0.5,0.2c1.4,1.2,2.7,2.5,4.1,3.7
				c0.1,0.1,0.3,0.3,0.3,0.5c0,0.2-0.1,0.4-0.2,0.6c-0.7,1-1.3,2-1.9,3C24.8,9,24.4,9,24.2,8.9c-0.5-0.2-0.9-0.4-1.4-0.6
				c-0.1,0.8-0.2,1.7-0.3,2.5c-0.2,1.5-0.5,3-1.1,4.4c0.8,1,1.6,2,2.4,3.1c0.9,1.1,1.6,2.3,2.4,3.5c1.2,2.1,2.2,4.4,2.4,6.9
				c0,0.2-0.1,0.4-0.3,0.5c-0.8,0.6-1.7,1-2.5,1.3c-2.4,0.9-4.9,1.3-7.4,1.5H18c-0.1,0-0.3-0.1-0.4-0.3c-0.4-0.5-0.7-1.1-1.1-1.6
				c-0.4,0.5-0.7,1.1-1.1,1.6c-0.1,0.1-0.2,0.2-0.4,0.3h-0.2c-1.6-0.1-3.2-0.3-4.8-0.7c-1.8-0.4-3.5-1-5-2c-0.2-0.1-0.5-0.4-0.5-0.7
				c0.1-0.8,0.2-1.7,0.5-2.5c0.7-2.5,2.1-4.8,3.6-7c1-1.4,2.1-2.7,3.1-4.1c-0.3-0.8-0.6-1.7-0.8-2.6c-0.3-1.4-0.5-2.9-0.6-4.3
				c-0.5,0.2-1,0.5-1.5,0.7C8.6,9,8.3,8.9,8.1,8.7C7.4,7.6,6.7,6.5,6,5.4C5.9,5.2,5.9,4.9,6.1,4.7c1.4-1.2,2.7-2.4,4.1-3.7
				C10.3,0.9,10.5,0.8,10.7,0.7z M11.2,1.7c-0.1,0-0.2,0-0.2,0.1C9.7,2.9,8.4,4.1,7.1,5.2c0.6,0.9,1.1,1.7,1.7,2.6
				C9.3,7.5,9.9,7.3,10.4,7c0.2-0.1,0.3-0.1,0.5,0c0.2,0.1,0.3,0.3,0.3,0.6c0.1,1.1,0.2,2.3,0.4,3.4c0.2,1.3,0.5,2.5,1,3.7
				c1.8,0,3.5,0,5.3,0c0.8,0,1.6,0,2.5,0c0.3-0.8,0.6-1.6,0.7-2.5c0.3-1.5,0.5-3,0.6-4.6c0-0.2,0-0.4,0.2-0.5
				c0.2-0.2,0.4-0.2,0.6-0.1c0.6,0.3,1.1,0.5,1.7,0.8c0.6-0.9,1.1-1.7,1.7-2.6c-1.2-1.1-2.5-2.2-3.7-3.3c-0.1-0.1-0.2-0.2-0.3-0.2
				c-0.5-0.1-1-0.2-1.5-0.3c-0.4,1.2-0.8,2.4-1.5,3.6c-0.6,0.9-1.2,1.8-2.2,2.4c-0.2,0.1-0.4,0.1-0.5,0c-0.5-0.3-0.9-0.7-1.3-1.1
				c-1.2-1.4-1.9-3.2-2.4-4.9C12.1,1.4,11.6,1.6,11.2,1.7z M14.1,2.6c0.6,1.4,1.3,2.8,2.4,3.7c1.2-0.9,1.9-2.4,2.4-3.7
				C17.4,2.9,15.7,2.9,14.1,2.6z M12.6,15.7c-1,1.3-2,2.6-3,3.9c-0.6,0.8-1.2,1.7-1.7,2.6c-1.1,1.9-2,4-2.3,6.3
				c0.8,0.5,1.7,0.9,2.6,1.3c2.1,0.7,4.3,1.1,6.5,1.2c0.5-0.7,0.9-1.4,1.4-2c0.2-0.3,0.7-0.3,0.8,0c0.5,0.7,0.9,1.4,1.4,2
				c1.4-0.1,2.8-0.2,4.2-0.6c1.7-0.4,3.4-1,4.9-1.9c-0.1-0.4-0.1-0.8-0.2-1.3c-0.6-2.5-1.9-4.9-3.3-7c-1.1-1.6-2.3-3-3.4-4.5
				c-0.2,0-0.4,0-0.6,0c0,1.7,0,3.4,0,5c0,0.3-0.2,0.5-0.5,0.5c-0.3,0-0.6-0.2-0.6-0.5c0-1.7,0-3.4,0-5.1c-0.6,0-1.1,0-1.7,0
				C15.6,15.7,14.1,15.7,12.6,15.7z"/>
		</g>
		<path class="st0" d="M16.4,8.5c0.4-0.1,0.8,0.3,0.7,0.6c-0.1,0.4-0.6,0.5-0.9,0.3C15.9,9.1,16,8.6,16.4,8.5z"/>
		<path class="st0" d="M16.3,10.6c0.4-0.2,0.8,0.2,0.8,0.6c0,0.4-0.6,0.6-0.9,0.3C15.9,11.3,16,10.8,16.3,10.6z"/>
		<path class="st0" d="M16.4,20.2c0.4-0.1,0.8,0.3,0.7,0.6c-0.1,0.4-0.6,0.6-0.9,0.3C15.9,20.9,16,20.3,16.4,20.2z"/>
		<path class="st0" d="M16.3,24.5c0.4-0.2,0.8,0.2,0.8,0.6c0,0.4-0.6,0.6-0.9,0.3C15.9,25.1,16,24.6,16.3,24.5z"/>
		<path class="st0" d="M16.3,26.6c0.4-0.2,0.8,0.2,0.8,0.6c0,0.4-0.6,0.6-0.9,0.3C15.9,27.3,16,26.7,16.3,26.6z"/>
	</g>
	<g>
		<g>
			<path class="st1" d="M11.2,1.7c0.5-0.1,0.9-0.2,1.4-0.3c0.5,1.8,1.3,3.5,2.4,4.9c0.4,0.4,0.8,0.8,1.3,1.1c0.2,0.1,0.4,0.1,0.5,0
				c0.9-0.6,1.6-1.5,2.2-2.4c0.7-1.1,1.1-2.3,1.5-3.6c0.5,0.1,1,0.2,1.5,0.3c0.1,0,0.2,0.1,0.3,0.2C23.5,3,24.8,4.1,26,5.2
				c-0.6,0.9-1.1,1.7-1.7,2.6c-0.6-0.3-1.1-0.5-1.7-0.8c-0.2-0.1-0.5-0.1-0.6,0.1c-0.2,0.1-0.2,0.3-0.2,0.5
				c-0.1,1.5-0.3,3.1-0.6,4.6c-0.2,0.8-0.4,1.7-0.7,2.5c-0.8,0-1.6,0-2.5,0c-1.8,0-3.5,0-5.3,0c-0.5-1.2-0.8-2.4-1-3.7
				c-0.2-1.1-0.3-2.3-0.4-3.4c0-0.2-0.1-0.5-0.3-0.6c-0.2-0.1-0.4,0-0.5,0C9.9,7.3,9.3,7.5,8.8,7.8C8.2,6.9,7.7,6.1,7.1,5.2
				c1.3-1.1,2.6-2.3,3.8-3.4C11,1.7,11.1,1.7,11.2,1.7z M16.4,8.5c-0.4,0.1-0.5,0.6-0.2,0.9c0.3,0.3,0.8,0.1,0.9-0.3
				C17.2,8.8,16.8,8.4,16.4,8.5z M16.3,10.6c-0.4,0.1-0.4,0.7-0.1,0.9c0.3,0.3,0.8,0.1,0.9-0.3C17.2,10.8,16.7,10.4,16.3,10.6z"/>
		</g>
		<g>
			<path class="st1" d="M12.6,15.7c1.5,0,3.1,0,4.6,0c0.6,0,1.1,0,1.7,0c0,1.7,0,3.4,0,5.1c0,0.3,0.3,0.6,0.6,0.5
				c0.3,0,0.5-0.3,0.5-0.5c0-1.7,0-3.4,0-5c0.2,0,0.4,0,0.6,0c1.1,1.5,2.3,3,3.4,4.5c1.5,2.1,2.7,4.4,3.3,7c0.1,0.4,0.2,0.8,0.2,1.3
				c-1.5,1-3.2,1.5-4.9,1.9c-1.4,0.3-2.8,0.5-4.2,0.6c-0.5-0.7-0.9-1.4-1.4-2c-0.2-0.3-0.7-0.3-0.8,0c-0.5,0.7-0.9,1.4-1.4,2
				c-2.2-0.1-4.4-0.5-6.5-1.2c-0.9-0.3-1.8-0.7-2.6-1.3c0.3-2.2,1.2-4.3,2.3-6.3c0.5-0.9,1.1-1.8,1.7-2.6
				C10.6,18.3,11.6,17,12.6,15.7z M16.4,20.2c-0.4,0.1-0.5,0.6-0.2,0.9c0.3,0.3,0.8,0.1,0.9-0.3C17.2,20.5,16.8,20.1,16.4,20.2z
				 M16.3,24.5c-0.4,0.1-0.4,0.7-0.1,0.9c0.3,0.3,0.8,0.1,0.9-0.3C17.2,24.6,16.7,24.3,16.3,24.5z M16.3,26.6
				c-0.4,0.1-0.4,0.7-0.1,0.9c0.3,0.3,0.8,0.1,0.9-0.3C17.2,26.7,16.7,26.4,16.3,26.6z"/>
		</g>
	</g>
	<g>
		<path class="st2" d="M14.1,2.6c1.6,0.4,3.3,0.4,4.9,0c-0.6,1.4-1.3,2.8-2.4,3.7C15.4,5.3,14.7,3.9,14.1,2.6z"/>
	</g>
</g>
</svg>
