<?xml version="1.0" encoding="utf-8"?>
<!-- Generator: Adobe Illustrator 19.2.1, SVG Export Plug-In . SVG Version: 6.00 Build 0)  -->
<svg version="1.1" id="Layer_1" xmlns="http://www.w3.org/2000/svg" xmlns:xlink="http://www.w3.org/1999/xlink" x="0px" y="0px"
	 viewBox="0 0 32 32" style="enable-background:new 0 0 32 32;" xml:space="preserve">
<style type="text/css">
	.st0{fill:#010202;}
	.st1{fill:#96593A;}
	.st2{fill:#AE6744;}
	.st3{fill:#E84240;}
	.st4{fill:#4492D0;}
	.st5{fill:#E9EEF2;}
	.st6{fill:#A36F59;}
	.st7{fill:#36A973;}
	.st8{fill:#FAB538;}
	.st9{fill:#7B4931;}
</style>
<g>
	<g>
		<g>
			<path class="st0" d="M3.6,1.1c0.9-0.3,1.8-0.2,2.7,0.2c0.7,0.3,1.3,0.9,1.6,1.6c1.9-0.6,4-0.6,5.9,0c0.3-0.5,0.7-1,1.2-1.4
				c0.8-0.6,2-0.8,2.9-0.5c0.9,0.2,1.7,0.8,2.1,1.6c0.5,0.9,0.7,1.9,0.4,2.9c-0.3,0.9-0.9,1.8-1.8,2.2c0.8,2.5,0.3,5.5-1.4,7.5
				c1.1,0.6,2.1,1.4,2.8,2.4c0-1.1,0-2.1,0-3.2c0-0.1,0-0.3,0.1-0.4c1.1-1.6,2.3-3.3,3.4-4.9c0.1-0.2,0.2-0.4,0.4-0.4
				c0.2-0.1,0.5,0,0.6,0.2c1.2,1.7,2.4,3.4,3.6,5.1c0.1,0.1,0.1,0.3,0.1,0.4c0,2.2,0,4.4,0,6.7c1,0,2.1,0,3.1,0
				c0.3,0,0.5,0.3,0.5,0.6c0,2.4,0,4.8,0,7.2c0,0.3-0.3,0.5-0.6,0.5c-3.9,0-7.8,0-11.7,0c-0.4,0.9-1.1,1.7-2,2.2
				c-0.8,0.4-1.8,0.5-2.7,0.3c-0.8-0.2-1.6-0.8-2.1-1.4c-1.3,0.7-2.9,0.7-4.2,0c-0.6,0.7-1.3,1.2-2.2,1.5c-0.9,0.2-2,0.1-2.8-0.4
				c-0.9-0.5-1.6-1.4-1.9-2.3c-0.5-1.3-0.4-2.8,0.2-4c-1.3-0.4-2.2-1.8-2-3.1c0.1-1.8,0.8-3.6,2.1-5c0.7-0.7,1.4-1.3,2.3-1.7
				c-1.7-2-2.2-5-1.4-7.5c-0.8-0.4-1.4-1.1-1.7-2c-0.3-0.9-0.3-2,0.2-2.8C1.8,2.1,2.6,1.4,3.6,1.1z M2.5,3C2,3.6,1.9,4.5,2.1,5.2
				c0.2,0.7,0.6,1.2,1.2,1.6C4,5.3,5.3,4,6.8,3.3C6.4,2.5,5.5,1.9,4.5,2C3.7,2,3,2.4,2.5,3z M16.2,2.1c-0.6,0.2-1.1,0.6-1.4,1.2
				c1.5,0.7,2.8,2,3.6,3.5c0.9-0.5,1.4-1.6,1.3-2.6c-0.1-0.7-0.5-1.4-1.2-1.8C17.7,2,16.9,1.9,16.2,2.1z M9.8,3.6
				C8.1,3.7,6.4,4.4,5.3,5.7C3,8.1,3,12.2,5.1,14.6c1.1,1.2,2.6,2,4.2,2.2c1.7,0.3,3.5,0.1,5.1-0.7c1.3-0.6,2.4-1.7,3-3
				c0.8-1.6,0.8-3.6,0.3-5.3c-0.5-1.4-1.5-2.6-2.7-3.4C13.4,3.7,11.5,3.4,9.8,3.6z M21.6,13.9c1.8,0,3.5,0,5.3,0
				c-0.9-1.3-1.7-2.5-2.6-3.8C23.4,11.4,22.5,12.6,21.6,13.9z M21.1,14.9c0,1.4,0,2.8,0,4.3c0,0.2,0,0.4,0,0.5
				c0.2,0.5,0.3,0.9,0.3,1.4c1.9,0,3.9,0,5.8,0c0-2.1,0-4.1,0-6.2C25.3,14.9,23.2,14.9,21.1,14.9z M2.8,17.6c-1.2,1.3-1.9,3-1.9,4.8
				c0.1,0.8,0.8,1.6,1.6,1.8c0.6-0.8,1.5-1.3,2.5-1.5c0.1-1.9,0.7-3.9,2-5.4c-0.7-0.3-1.4-0.7-2-1.3C4.2,16.4,3.5,17,2.8,17.6z
				 M14.5,17.3c1.3,1.5,1.9,3.5,2,5.4c1,0.1,1.9,0.7,2.5,1.5c0.9-0.2,1.7-1.2,1.6-2.1c-0.1-1.6-0.7-3.3-1.9-4.4
				c-0.6-0.6-1.4-1.1-2.2-1.5C15.9,16.5,15.2,17,14.5,17.3z M6.1,22.7c0.5,0.1,1.1,0.3,1.5,0.6c1,0.7,1.7,1.8,2,2.9
				c0.2,1.1,0.1,2.3-0.4,3.3c0.9,0.5,2.1,0.5,3.1,0c-0.8-1.6-0.6-3.6,0.4-5.1c0.6-0.9,1.6-1.6,2.7-1.7c-0.1-1.8-0.7-3.7-2-5
				c-1.7,0.5-3.6,0.5-5.3,0C6.8,19,6.3,20.9,6.1,22.7z M21.6,22.1c0,0.4-0.1,0.7-0.2,1c0.3,0,0.5,0,0.8,0c0.3,0,0.5,0.3,0.4,0.6
				c0,1,0,2,0,3c0,0.3-0.2,0.5-0.5,0.5c-0.7,0-1.4,0-2.1,0c0,0.3,0,0.7-0.1,1c1.2,0,2.5,0,3.7,0c0-2.1,0-4.1,0-6.2
				C23,22.1,22.3,22.1,21.6,22.1z M24.8,22.1c0,2.1,0,4.1,0,6.2c2.1,0,4.1,0,6.2,0c0-2.1,0-4.1,0-6.2C28.9,22.1,26.8,22.1,24.8,22.1
				z M5.2,23.7c-0.8,0.1-1.4,0.6-1.9,1.2c-1.1,1.5-1,3.8,0.3,5.1c0.6,0.6,1.4,1,2.3,0.9c0.9-0.1,1.6-0.6,2.1-1.3
				c1.1-1.5,1-3.9-0.4-5.2C6.9,23.9,6,23.6,5.2,23.7z M15.5,23.7c-0.8,0.1-1.4,0.6-1.9,1.2c-1.1,1.5-1,3.7,0.2,5
				c0.6,0.6,1.4,1,2.3,1c0.9,0,1.7-0.5,2.2-1.2c1.1-1.5,1-3.9-0.4-5.2C17.3,23.9,16.4,23.6,15.5,23.7z M20.8,24.2
				c-0.3,0.4-0.8,0.7-1.3,0.8c0.2,0.4,0.3,0.8,0.4,1.2c0.6,0,1.1,0,1.7,0c0-0.7,0-1.4,0-2.1C21.4,24.2,21.1,24.2,20.8,24.2z"/>
		</g>
		<path class="st0" d="M7.5,8.7C7.9,8.6,8.3,9,8.2,9.3C8.1,9.7,7.6,9.9,7.3,9.6C7.1,9.3,7.2,8.8,7.5,8.7z"/>
		<path class="st0" d="M13.7,8.7c0.4-0.1,0.8,0.2,0.7,0.6c-0.1,0.4-0.6,0.5-0.9,0.2C13.3,9.3,13.4,8.8,13.7,8.7z"/>
		<g>
			<path class="st0" d="M8.7,10.8c0.1-0.6,0.6-1,1.1-1c0.6,0,1.2,0,1.8,0c0.4,0,0.8,0.2,1,0.5c0.3,0.4,0.3,1,0,1.4
				c-0.1,0.2-0.4,0.4-0.6,0.5c-0.3,0.2-0.5,0.4-0.8,0.5c0,0.5,0,1.1,0,1.6c0.8-0.1,1.5-0.4,2-1c0.3-0.3,0.5-0.8,0.5-1.3
				c0-0.2,0.1-0.4,0.3-0.5c0.3-0.2,0.6,0,0.7,0.3c0.1,0.2,0,0.4,0,0.7c-0.2,0.9-0.8,1.7-1.5,2.1c-1.1,0.7-2.4,0.9-3.7,0.6
				c-0.9-0.2-1.8-0.7-2.3-1.4c-0.4-0.5-0.7-1.2-0.7-1.8c0-0.3,0.2-0.5,0.5-0.5c0.3,0,0.5,0.2,0.5,0.5c0,0.3,0.1,0.7,0.3,1
				c0.5,0.8,1.4,1.2,2.3,1.3c0-0.5,0-1.1,0-1.6c-0.4-0.2-0.7-0.5-1-0.7C8.9,11.7,8.7,11.2,8.7,10.8z M9.8,11.1
				c0.3,0.2,0.6,0.5,1,0.7c0.3-0.2,0.6-0.4,1-0.7c0.1-0.1,0.1-0.4-0.1-0.4c-0.6,0-1.1,0-1.7,0C9.8,10.7,9.7,11,9.8,11.1z"/>
		</g>
		<g>
			<path class="st0" d="M23.8,16c1-0.2,2.1,0.4,2.4,1.4c0.3,0.9-0.2,2-1.1,2.4c-0.9,0.4-2,0.1-2.6-0.6c-0.6-0.8-0.5-1.9,0.1-2.6
				C23,16.3,23.4,16.1,23.8,16z M23.9,17c-0.5,0.1-0.8,0.6-0.7,1.1c0.1,0.5,0.6,1,1.2,0.9c0.6-0.1,1-0.7,0.9-1.2
				C25.2,17.2,24.5,16.8,23.9,17z"/>
		</g>
		<g>
			<path class="st0" d="M27.7,23.2c0.2-0.1,0.5,0,0.6,0.3c0.5,1,1,2.1,1.6,3.1c0.2,0.3-0.1,0.7-0.5,0.7c-1,0-1.9,0-2.9,0
				c-0.2,0-0.4,0-0.5-0.1c-0.2-0.1-0.3-0.5-0.2-0.7c0.5-1,1-2,1.5-3C27.4,23.4,27.5,23.3,27.7,23.2z M27.1,26.3c0.5,0,1,0,1.4,0
				c-0.2-0.5-0.5-1-0.7-1.4C27.6,25.3,27.4,25.8,27.1,26.3z"/>
		</g>
	</g>
	<g>
		<path class="st1" d="M2.5,3c0.5-0.6,1.2-1,2-1c0.9,0,1.9,0.5,2.3,1.3C5.3,4,4,5.3,3.3,6.8c-0.6-0.3-1-0.9-1.2-1.6
			C1.9,4.5,2,3.6,2.5,3z"/>
		<path class="st1" d="M16.2,2.1c0.7-0.3,1.6-0.1,2.2,0.3c0.6,0.4,1.1,1.1,1.2,1.8c0.1,1-0.4,2.1-1.3,2.6c-0.7-1.5-2-2.8-3.6-3.5
			C15,2.7,15.6,2.3,16.2,2.1z"/>
		<path class="st1" d="M2.8,17.6C3.5,17,4.2,16.4,5.1,16c0.6,0.5,1.3,0.9,2,1.3c-1.3,1.5-1.9,3.5-2,5.4c-1,0.1-1.9,0.7-2.5,1.5
			C1.8,24,1.1,23.3,1,22.4C1,20.7,1.6,18.9,2.8,17.6z"/>
		<path class="st1" d="M14.5,17.3c0.7-0.3,1.4-0.7,2-1.2c0.8,0.4,1.6,0.9,2.2,1.5c1.2,1.2,1.8,2.8,1.9,4.4c0.1,1-0.6,1.9-1.6,2.1
			c-0.6-0.8-1.5-1.3-2.5-1.5C16.4,20.8,15.8,18.8,14.5,17.3z"/>
	</g>
	<g>
		<g>
			<path class="st2" d="M9.8,3.6c1.8-0.2,3.6,0.1,5.1,1c1.3,0.7,2.3,2,2.7,3.4c0.6,1.7,0.5,3.7-0.3,5.3c-0.6,1.3-1.7,2.4-3,3
				c-1.6,0.8-3.4,0.9-5.1,0.7c-1.6-0.2-3.1-1-4.2-2.2C3,12.2,3,8.1,5.3,5.7C6.4,4.4,8.1,3.7,9.8,3.6z M7.5,8.7
				C7.2,8.8,7.1,9.3,7.3,9.6c0.3,0.3,0.8,0.1,0.9-0.2C8.3,9,7.9,8.6,7.5,8.7z M13.7,8.7c-0.4,0.1-0.5,0.6-0.2,0.9
				c0.3,0.3,0.8,0.1,0.9-0.2C14.5,9,14.1,8.6,13.7,8.7z M8.7,10.8c-0.1,0.5,0.1,1,0.5,1.2c0.3,0.2,0.7,0.5,1,0.7c0,0.5,0,1.1,0,1.6
				C9.4,14.2,8.5,13.8,8,13c-0.2-0.3-0.3-0.6-0.3-1c0-0.3-0.2-0.5-0.5-0.5c-0.3,0-0.5,0.2-0.5,0.5c0,0.7,0.3,1.3,0.7,1.8
				c0.6,0.7,1.4,1.2,2.3,1.4c1.2,0.3,2.6,0.1,3.7-0.6c0.8-0.5,1.4-1.2,1.5-2.1c0-0.2,0.1-0.4,0-0.7c-0.1-0.3-0.5-0.4-0.7-0.3
				c-0.2,0.1-0.3,0.3-0.3,0.5c0,0.5-0.2,0.9-0.5,1.3c-0.5,0.6-1.3,0.9-2,1c0-0.5,0-1.1,0-1.6c0.3-0.2,0.5-0.4,0.8-0.5
				c0.2-0.1,0.4-0.3,0.6-0.5c0.3-0.4,0.3-1,0-1.4c-0.2-0.3-0.6-0.6-1-0.5c-0.6,0-1.2,0-1.8,0C9.3,9.7,8.8,10.2,8.7,10.8z"/>
		</g>
		<path class="st2" d="M9.8,11.1c-0.1-0.1-0.1-0.4,0.1-0.4c0.6,0,1.1,0,1.7,0c0.2,0,0.2,0.3,0.1,0.4c-0.3,0.2-0.6,0.5-1,0.7
			C10.5,11.6,10.1,11.4,9.8,11.1z"/>
	</g>
	<g>
		<path class="st3" d="M21.6,13.9c0.9-1.3,1.7-2.5,2.6-3.8c0.9,1.2,1.8,2.5,2.6,3.8C25.1,13.9,23.4,13.9,21.6,13.9z"/>
	</g>
	<g>
		<g>
			<path class="st4" d="M21.1,14.9c2.1,0,4.1,0,6.2,0c0,2.1,0,4.1,0,6.2c-1.9,0-3.9,0-5.8,0c-0.1-0.5-0.2-0.9-0.3-1.4
				c-0.1-0.2,0-0.4,0-0.5C21.1,17.7,21.1,16.3,21.1,14.9z M23.8,16c-0.4,0.1-0.8,0.3-1.1,0.6c-0.7,0.7-0.7,1.9-0.1,2.6
				c0.6,0.8,1.7,1.1,2.6,0.6c0.9-0.4,1.4-1.5,1.1-2.4C26,16.4,24.8,15.7,23.8,16z"/>
		</g>
	</g>
	<g>
		<path class="st5" d="M23.9,17c0.6-0.2,1.2,0.2,1.3,0.8c0.1,0.6-0.3,1.2-0.9,1.2c-0.5,0.1-1.1-0.3-1.2-0.9
			C23.1,17.7,23.5,17.2,23.9,17z"/>
		<path class="st5" d="M20.8,24.2c0.3,0,0.5,0,0.8,0c0,0.7,0,1.4,0,2.1c-0.6,0-1.1,0-1.7,0c-0.1-0.4-0.2-0.8-0.4-1.2
			C20.1,24.9,20.5,24.6,20.8,24.2z"/>
		<path class="st5" d="M27.1,26.3c0.2-0.5,0.5-1,0.7-1.4c0.2,0.5,0.5,1,0.7,1.4C28.1,26.3,27.6,26.3,27.1,26.3z"/>
	</g>
	<g>
		<path class="st6" d="M6.1,22.7c0.1-1.8,0.7-3.7,2-5c1.7,0.5,3.6,0.5,5.3,0c1.3,1.3,1.9,3.2,2,5c-1.1,0.2-2.1,0.8-2.7,1.7
			c-1,1.5-1.2,3.5-0.4,5.1c-0.9,0.5-2.1,0.5-3.1,0c0.5-1,0.6-2.2,0.4-3.3c-0.3-1.2-1-2.3-2-2.9C7.2,23,6.7,22.8,6.1,22.7z"/>
	</g>
	<g>
		<path class="st7" d="M21.6,22.1c0.7,0,1.4,0,2.1,0c0,2.1,0,4.1,0,6.2c-1.2,0-2.5,0-3.7,0c0.1-0.3,0.1-0.7,0.1-1c0.7,0,1.4,0,2.1,0
			c0.3,0,0.5-0.2,0.5-0.5c0-1,0-2,0-3c0-0.3-0.2-0.5-0.4-0.6c-0.3,0-0.5,0-0.8,0C21.6,22.8,21.7,22.5,21.6,22.1z"/>
	</g>
	<g>
		<g>
			<path class="st8" d="M24.8,22.1c2.1,0,4.1,0,6.2,0c0,2.1,0,4.1,0,6.2c-2.1,0-4.1,0-6.2,0C24.8,26.3,24.8,24.2,24.8,22.1z
				 M27.7,23.2c-0.1,0.1-0.3,0.2-0.3,0.3c-0.5,1-1,2-1.5,3c-0.1,0.2-0.1,0.5,0.2,0.7c0.1,0.1,0.3,0.1,0.5,0.1c1,0,1.9,0,2.9,0
				c0.4,0,0.6-0.4,0.5-0.7c-0.5-1-1-2.1-1.6-3.1C28.2,23.2,27.9,23.1,27.7,23.2z"/>
		</g>
	</g>
	<g>
		<path class="st9" d="M5.2,23.7c0.8-0.1,1.7,0.2,2.4,0.8C9,25.8,9.1,28.1,8,29.7c-0.5,0.7-1.3,1.2-2.1,1.3C5,31,4.1,30.6,3.6,30
			c-1.3-1.3-1.4-3.6-0.3-5.1C3.8,24.3,4.4,23.8,5.2,23.7z"/>
		<path class="st9" d="M15.5,23.7c0.9-0.1,1.8,0.2,2.4,0.8c1.4,1.3,1.5,3.7,0.4,5.2c-0.5,0.7-1.3,1.2-2.2,1.2
			c-0.9,0.1-1.7-0.3-2.3-1c-1.2-1.4-1.3-3.6-0.2-5C14.1,24.3,14.8,23.8,15.5,23.7z"/>
	</g>
</g>
</svg>
