<?xml version="1.0" encoding="utf-8"?>
<!-- Generator: Adobe Illustrator 19.2.1, SVG Export Plug-In . SVG Version: 6.00 Build 0)  -->
<svg version="1.1" id="Layer_1" xmlns="http://www.w3.org/2000/svg" xmlns:xlink="http://www.w3.org/1999/xlink" x="0px" y="0px"
	 viewBox="0 0 32 32" style="enable-background:new 0 0 32 32;" xml:space="preserve">
<style type="text/css">
	.st0{fill:#010202;}
	.st1{fill:#C4C7C8;}
	.st2{fill:#9AA3A8;}
	.st3{fill:#976752;}
	.st4{fill:#B37B61;}
</style>
<g>
	<g>
		<g>
			<path class="st0" d="M9.1,1.1C9.3,1,9.6,1,9.9,1c1.5,0,2.9,0,4.4,0c0.2,0,0.4,0,0.6,0.1c0.6,0.1,1.1,0.3,1.7,0.4
				c0.2,0,0.4,0.1,0.5,0.3c0.2,0.3,0.3,0.6,0.4,0.9c0,0.1,0.1,0.1,0.2,0.2c1.1,0.6,2.3,1.1,3.4,1.7c0.5,0.3,1.1,0.6,1.5,1
				c0.8,0.9,1.3,2,1.3,3.2c2.1,0,4.1,0,6.2,0c0.3,0,0.6,0.2,0.6,0.5c0,1,0,2,0,3c0.1,0.7,0.3,1.3,0.5,2c0,0.2,0,0.5,0,0.8
				c0,5.5,0,10.9,0,16.4c0,0.3-0.2,0.6-0.5,0.6c-1.6,0-3.3,0-4.9,0c-0.2,0-0.4,0-0.6-0.1c-0.2-0.1-0.2-0.3-0.2-0.5
				c-0.3-2.8-0.7-5.5-1-8.3c0,0,0-0.1,0-0.1c-0.3,2.8-0.7,5.6-1,8.4c0,0.2-0.1,0.4-0.2,0.5C22.5,32,22.3,32,22.1,32
				c-1.7,0-3.3,0-5,0c-0.3,0-0.5-0.2-0.5-0.5c0-1.6,0-3.1,0-4.7c-4,0-7.9,0-11.9,0c-0.3,0-0.6-0.2-0.6-0.5c0-3.3,0-6.5,0-9.8
				c-1.2,0-2.4,0-3.6,0c-0.3,0-0.5-0.3-0.5-0.6c0-2.4,0-4.9,0-7.3c0-1.6,1-3.2,2.5-4C3.7,4,4.9,3.4,6.2,2.8c0.1,0,0.2-0.1,0.2-0.2
				C6.6,2.3,6.7,2,6.8,1.7c0.1-0.1,0.3-0.2,0.4-0.2C7.9,1.4,8.5,1.2,9.1,1.1z M9.9,2c0,0.3,0,0.7,0,1c1.4,0,2.8,0,4.1,0
				c0-0.3,0-0.7,0-1C12.6,2,11.2,2,9.9,2z M7.7,2.5c-0.1,0-0.2,0.1-0.2,0.2C7.2,3.3,6.9,4,6.6,4.6c0.4,0,0.9,0,1.3,0
				c0.3,0,0.5,0.3,0.5,0.5c0,0.6,0,1.2,0,1.7c1,0.5,2.1,1,3.1,1.6c0-0.3,0-0.6,0-1c0-0.1-0.1-0.1-0.1-0.2C10.5,6.3,9.8,5.4,9,4.5
				C8.9,4.4,8.8,4.3,8.8,4.1c0-0.6,0-1.3,0-1.9C8.5,2.3,8.1,2.4,7.7,2.5z M15,2.2c0,0.6,0,1.3,0,1.9c0,0.2-0.1,0.3-0.2,0.4
				c-0.8,0.9-1.5,1.8-2.3,2.7c0,0.1-0.1,0.1-0.1,0.2c0,0.3,0,0.6,0,1c1-0.5,2.1-1,3.1-1.6c0-0.6,0-1.2,0-1.7c0-0.2,0.2-0.5,0.5-0.5
				c0.4,0,0.9,0,1.3,0c-0.3-0.6-0.6-1.3-1-1.9c-0.1-0.1-0.1-0.2-0.2-0.2C15.8,2.4,15.4,2.3,15,2.2z M10,4.1c0.6,0.8,1.3,1.5,1.9,2.3
				c0.6-0.8,1.3-1.5,1.9-2.3C12.6,4.1,11.3,4.1,10,4.1z M3.5,5.3C3.1,5.5,2.7,5.7,2.4,5.9C1.5,6.6,1,7.6,1,8.7c0,1.6,0,3.1,0,4.7
				c1,0,2.1,0,3.1,0c0-1,0-2.1,0-3.1c0-0.3,0.2-0.5,0.5-0.5c0.3,0,0.5,0.2,0.5,0.5c0,0.5,0,1,0,1.6c1.2,0,2.4,0,3.6,0
				c0.3,0,0.5,0.2,0.5,0.5c0,1.7,0,3.4,0,5.1c0,0.3-0.2,0.6-0.5,0.6c-1.2,0-2.4,0-3.6,0c0,2.6,0,5.2,0,7.7c2.1,0,4.1,0,6.2,0
				c0-5.4,0-10.8,0-16.2c-1.3-0.6-2.6-1.3-3.8-1.9C7.4,7.6,7.3,7.4,7.3,7.2c0-0.5,0-1,0-1.6c-0.5,0-1,0-1.6,0C5.4,5.7,5.1,5.3,5.2,5
				c0.1-0.3,0.3-0.5,0.3-0.8C4.8,4.6,4.2,4.9,3.5,5.3z M18.3,4.3c0.1,0.3,0.3,0.5,0.3,0.8c0.1,0.3-0.2,0.6-0.5,0.6c-0.5,0-1,0-1.6,0
				c0,0.5,0,1,0,1.6c0,0.2-0.1,0.4-0.3,0.5C15,8.3,13.7,9,12.5,9.6c0,5.4,0,10.8,0,16.2c1.4,0,2.8,0,4.1,0c0-3.7,0-7.5,0-11.2
				c0-0.2,0-0.3,0.1-0.5c0.1-0.5,0.3-1.1,0.4-1.6c0.1-0.3,0-0.5,0-0.8c0-0.8,0-1.6,0-2.5c0-0.3,0.2-0.5,0.5-0.5c1.7,0,3.5,0,5.2,0
				c0-1.3-0.8-2.6-1.9-3.2C20,5.1,19.2,4.7,18.3,4.3z M18.2,9.8c0,0.7,0,1.4,0,2.1c0.3,0,0.7,0,1,0c0-0.7,0-1.4,0-2.1
				C18.8,9.8,18.5,9.8,18.2,9.8z M20.2,9.8c0,0.7,0,1.4,0,2.1c0.3,0,0.7,0,1,0c0-0.7,0-1.4,0-2.1C20.9,9.8,20.6,9.8,20.2,9.8z
				 M22.3,9.8c0,0.7,0,1.4,0,2.1c0.3,0,0.7,0,1,0c0-0.7,0-1.4,0-2.1C23,9.8,22.7,9.8,22.3,9.8z M24.4,9.8c0,0.7,0,1.4,0,2.1
				c0.3,0,0.7,0,1,0c0-0.7,0-1.4,0-2.1C25.1,9.8,24.7,9.8,24.4,9.8z M26.5,9.8c0,0.7,0,1.4,0,2.1c0.3,0,0.7,0,1,0c0-0.7,0-1.4,0-2.1
				C27.1,9.8,26.8,9.8,26.5,9.8z M28.5,9.8c0,0.7,0,1.4,0,2.1c0.3,0,0.7,0,1,0c0-0.7,0-1.4,0-2.1C29.2,9.8,28.9,9.8,28.5,9.8z
				 M5.2,12.9c0,0.3,0,0.7,0,1c1,0,2.1,0,3.1,0c0-0.3,0-0.7,0-1C7.3,12.9,6.2,12.9,5.2,12.9z M18,12.9c-0.1,0.5-0.2,0.9-0.4,1.4
				c-0.1,0.3,0,0.6-0.1,0.9c0,4.6,0,9.2,0,13.8c1.5,0,3,0,4.5,0c0.4-3.4,0.8-6.8,1.2-10.2c0-0.2,0-0.4,0.2-0.5
				c0.2-0.2,0.5-0.2,0.7,0c0.1,0.1,0.1,0.3,0.2,0.4c0.4,3.4,0.8,6.8,1.2,10.3c1.5,0,3,0,4.5,0c0-4.8,0-9.5,0-14.3
				c-0.1-0.6-0.3-1.2-0.4-1.7C25.8,12.9,21.9,12.9,18,12.9z M1,14.4c0,0.3,0,0.7,0,1c1,0,2.1,0,3.1,0c0-0.3,0-0.7,0-1
				C3.1,14.4,2.1,14.4,1,14.4z M5.2,15c0,0.7,0,1.4,0,2.1c1,0,2.1,0,3.1,0c0-0.7,0-1.4,0-2.1C7.3,15,6.2,15,5.2,15z M17.6,29.9
				c0,0.3,0,0.7,0,1c1.4,0,2.8,0,4.2,0c0-0.3,0.1-0.7,0.1-1C20.5,29.9,19.1,29.9,17.6,29.9z M25.8,29.9c0,0.3,0.1,0.7,0.1,1
				c1.4,0,2.8,0,4.2,0c0-0.3,0-0.7,0-1C28.6,29.9,27.2,29.9,25.8,29.9z"/>
		</g>
	</g>
	<g>
		<path class="st1" d="M9.9,2c1.4,0,2.8,0,4.1,0c0,0.3,0,0.7,0,1c-1.4,0-2.8,0-4.1,0C9.9,2.7,9.9,2.4,9.9,2z"/>
		<path class="st1" d="M10,4.1c1.3,0,2.5,0,3.8,0c-0.6,0.8-1.3,1.5-1.9,2.3C11.3,5.6,10.7,4.9,10,4.1z"/>
		<path class="st1" d="M3.5,5.3c0.7-0.3,1.4-0.7,2.1-1C5.5,4.5,5.3,4.8,5.2,5C5.1,5.3,5.4,5.7,5.7,5.6c0.5,0,1,0,1.6,0
			c0,0.5,0,1,0,1.6c0,0.2,0.1,0.4,0.3,0.5c1.3,0.6,2.6,1.3,3.8,1.9c0,5.4,0,10.8,0,16.2c-2.1,0-4.1,0-6.2,0c0-2.6,0-5.2,0-7.7
			c1.2,0,2.4,0,3.6,0c0.3,0,0.5-0.3,0.5-0.6c0-1.7,0-3.4,0-5.1c0-0.3-0.2-0.5-0.5-0.5c-1.2,0-2.4,0-3.6,0c0-0.5,0-1,0-1.6
			c0-0.3-0.2-0.5-0.5-0.5c-0.3,0-0.5,0.2-0.5,0.5c0,1,0,2.1,0,3.1c-1,0-2.1,0-3.1,0c0-1.6,0-3.1,0-4.7c0-1.1,0.5-2.1,1.3-2.8
			C2.7,5.7,3.1,5.5,3.5,5.3z"/>
		<path class="st1" d="M18.3,4.3c0.9,0.4,1.7,0.8,2.6,1.3c1.2,0.6,2,1.9,1.9,3.2c-1.7,0-3.5,0-5.2,0c-0.3,0-0.5,0.2-0.5,0.5
			c0,0.8,0,1.6,0,2.5c0,0.3,0,0.5,0,0.8c-0.1,0.5-0.3,1.1-0.4,1.6c0,0.1-0.1,0.3-0.1,0.5c0,3.7,0,7.5,0,11.2c-1.4,0-2.8,0-4.1,0
			c0-5.4,0-10.8,0-16.2C13.7,9,15,8.3,16.3,7.7c0.2-0.1,0.3-0.3,0.3-0.5c0-0.5,0-1,0-1.6c0.5,0,1,0,1.6,0c0.3,0,0.6-0.3,0.5-0.6
			C18.6,4.8,18.4,4.5,18.3,4.3z"/>
		<path class="st1" d="M5.2,15c1,0,2.1,0,3.1,0c0,0.7,0,1.4,0,2.1c-1,0-2.1,0-3.1,0C5.2,16.3,5.2,15.6,5.2,15z"/>
	</g>
	<g>
		<path class="st2" d="M7.7,2.5c0.4-0.1,0.7-0.2,1.1-0.3c0,0.6,0,1.3,0,1.9c0,0.2,0.1,0.3,0.2,0.4c0.8,0.9,1.5,1.8,2.3,2.7
			c0,0.1,0.1,0.1,0.1,0.2c0,0.3,0,0.6,0,1c-1-0.5-2.1-1-3.1-1.6c0-0.6,0-1.2,0-1.7c0-0.2-0.2-0.5-0.5-0.5c-0.4,0-0.9,0-1.3,0
			c0.3-0.6,0.7-1.3,1-1.9C7.6,2.6,7.6,2.5,7.7,2.5z"/>
		<path class="st2" d="M15,2.2c0.4,0.1,0.7,0.2,1.1,0.3c0.1,0,0.2,0.1,0.2,0.2c0.3,0.6,0.7,1.3,1,1.9c-0.4,0-0.9,0-1.3,0
			c-0.3,0-0.5,0.3-0.5,0.5c0,0.6,0,1.2,0,1.7c-1,0.5-2.1,1-3.1,1.6c0-0.3,0-0.6,0-1c0-0.1,0.1-0.1,0.1-0.2c0.8-0.9,1.5-1.8,2.3-2.7
			C15,4.4,15,4.3,15,4.1C15.1,3.5,15,2.8,15,2.2z"/>
		<path class="st2" d="M5.2,12.9c1,0,2.1,0,3.1,0c0,0.3,0,0.7,0,1c-1,0-2.1,0-3.1,0C5.2,13.6,5.2,13.2,5.2,12.9z"/>
		<path class="st2" d="M1,14.4c1,0,2.1,0,3.1,0c0,0.3,0,0.7,0,1c-1,0-2.1,0-3.1,0C1,15.1,1,14.8,1,14.4z"/>
	</g>
	<g>
		<path class="st3" d="M18.2,9.8c0.3,0,0.7,0,1,0c0,0.7,0,1.4,0,2.1c-0.3,0-0.7,0-1,0C18.2,11.2,18.2,10.5,18.2,9.8z"/>
		<path class="st3" d="M20.2,9.8c0.3,0,0.7,0,1,0c0,0.7,0,1.4,0,2.1c-0.3,0-0.7,0-1,0C20.2,11.2,20.2,10.5,20.2,9.8z"/>
		<path class="st3" d="M22.3,9.8c0.3,0,0.7,0,1,0c0,0.7,0,1.4,0,2.1c-0.3,0-0.7,0-1,0C22.3,11.2,22.3,10.5,22.3,9.8z"/>
		<path class="st3" d="M24.4,9.8c0.3,0,0.7,0,1,0c0,0.7,0,1.4,0,2.1c-0.3,0-0.7,0-1,0C24.4,11.2,24.4,10.5,24.4,9.8z"/>
		<path class="st3" d="M26.5,9.8c0.3,0,0.7,0,1,0c0,0.7,0,1.4,0,2.1c-0.3,0-0.7,0-1,0C26.5,11.2,26.5,10.5,26.5,9.8z"/>
		<path class="st3" d="M28.5,9.8c0.3,0,0.7,0,1,0c0,0.7,0,1.4,0,2.1c-0.3,0-0.7,0-1,0C28.5,11.2,28.5,10.5,28.5,9.8z"/>
		<path class="st3" d="M17.6,29.9c1.4,0,2.9,0,4.3,0c0,0.3-0.1,0.7-0.1,1c-1.4,0-2.8,0-4.2,0C17.6,30.6,17.6,30.3,17.6,29.9z"/>
		<path class="st3" d="M25.8,29.9c1.4,0,2.9,0,4.3,0c0,0.3,0,0.7,0,1c-1.4,0-2.8,0-4.2,0C25.8,30.6,25.8,30.3,25.8,29.9z"/>
	</g>
	<g>
		<path class="st4" d="M18,12.9c3.9,0,7.8,0,11.6,0c0.1,0.6,0.3,1.1,0.4,1.7c0,4.8,0,9.5,0,14.3c-1.5,0-3,0-4.5,0
			c-0.4-3.4-0.8-6.8-1.2-10.3c0-0.2,0-0.3-0.2-0.4c-0.2-0.2-0.5-0.2-0.7,0c-0.1,0.1-0.1,0.3-0.2,0.5c-0.4,3.4-0.8,6.8-1.2,10.2
			c-1.5,0-3,0-4.5,0c0-4.6,0-9.2,0-13.8c0-0.3,0-0.6,0.1-0.9C17.8,13.8,17.9,13.4,18,12.9z"/>
	</g>
</g>
</svg>
