<?xml version="1.0" encoding="utf-8"?>
<!-- Generator: Adobe Illustrator 19.2.1, SVG Export Plug-In . SVG Version: 6.00 Build 0)  -->
<svg version="1.1" id="Layer_1" xmlns="http://www.w3.org/2000/svg" xmlns:xlink="http://www.w3.org/1999/xlink" x="0px" y="0px"
	 viewBox="0 0 32 32" style="enable-background:new 0 0 32 32;" xml:space="preserve">
<style type="text/css">
	.st0{fill:#515454;}
	.st1{fill:#69A7FF;}
	.st2{fill:#4B88D5;}
	.st3{fill:#CCCAC3;}
	.st4{fill:#ADACA7;}
	.st5{fill:#8F8F8B;}
</style>
<g>
	<g>
		<g>
			<path class="st0" d="M1.2,2.5c0.4-0.4,0.9-0.7,1.5-0.7c8.9,0,17.8,0,26.8,0c0.9,0,1.8,0.8,1.8,1.7v16.7c-0.6,0-1.2,0-1.8,0
				c-9.5,0-19,0-28.4,0c-0.1,0-0.2,0-0.2,0V3.5C0.8,3.2,0.9,2.8,1.2,2.5z M2.6,3.7c0,4.9,0,9.8,0,14.7c8.3,0,16.7,0,25,0
				c0.6,0,1.2,0,1.8,0c0-4.9,0-9.8,0-14.7c-0.6,0-1.2,0-1.8,0C19.2,3.7,10.9,3.7,2.6,3.7z"/>
		</g>
	</g>
	<g>
		<path class="st1" d="M2.6,3.7c8.3,0,16.7,0,25,0c0,4.9,0,9.8,0,14.7c-8.3,0-16.7,0-25,0C2.6,13.5,2.6,8.6,2.6,3.7z"/>
	</g>
	<g>
		<path class="st2" d="M27.6,3.7c0.6,0,1.2,0,1.8,0c0,4.9,0,9.8,0,14.7c-0.6,0-1.2,0-1.8,0C27.6,13.5,27.6,8.6,27.6,3.7z"/>
	</g>
	<g>
		<path class="st3" d="M0.7,20.3c0.1,0,0.2,0,0.2,0c9.5,0,19,0,28.4,0c0,1.2,0,2.4,0,3.7c0,0.6-0.3,1.1-0.7,1.5
			c-0.2,0.2-0.5,0.3-0.8,0.4c-3,0-5.9,0-8.9,0c-2,0-4,0-6,0c-3.5,0-6.9,0-10.4,0c-0.5,0-0.9-0.1-1.2-0.4C1,25,0.7,24.5,0.7,24V20.3z
			"/>
	</g>
	<g>
		<path class="st4" d="M29.4,20.3c0.6,0,1.2,0,1.8,0V24c0,0.5-0.2,1-0.6,1.3c-0.3,0.3-0.8,0.5-1.3,0.5c-0.5,0-1,0-1.5,0
			c0.3-0.1,0.6-0.2,0.8-0.4c0.5-0.3,0.7-0.9,0.7-1.5C29.4,22.7,29.4,21.5,29.4,20.3z"/>
		<path class="st4" d="M12.1,28.8c0.2-0.4,0.3-0.8,0.4-1.2c1.7,0,3.4,0,5.2,0c0.1,0.4,0.2,0.8,0.4,1.2c0.4,0.6,1,1,1.7,1.2
			c-0.1,0-0.2,0-0.3,0c-2.9,0-5.9,0-8.8,0c-0.1,0-0.2,0-0.3,0C11.1,29.9,11.7,29.4,12.1,28.8z"/>
	</g>
	<g>
		<path class="st5" d="M13,25.8c2,0,4,0,6,0c0.2,0.8,0.5,1.7,0.7,2.5c0.2,0.8,0.9,1.4,1.7,1.7c0.4,0.1,0.8,0.1,1.2,0.1
			c1,0,1.9,0,2.9,0c0.3,0,0.5,0.2,0.5,0.5c0,0.3-0.2,0.5-0.5,0.5c-6.3,0-12.6,0-19,0c-0.2,0-0.5-0.2-0.5-0.4c0-0.3,0.2-0.5,0.4-0.5
			c0.9,0,1.8,0,2.7,0c0.4,0,0.8,0,1.2,0c0.1,0,0.2,0,0.3,0c2.9,0,5.9,0,8.8,0c0.1,0,0.2,0,0.3,0c-0.7-0.2-1.3-0.6-1.7-1.2
			c-0.2-0.4-0.3-0.8-0.4-1.2c-1.7,0-3.4,0-5.2,0C12.7,27,12.8,26.4,13,25.8z"/>
	</g>
</g>
</svg>
